<?xml version="1.0" standalone="no"?>
<!DOCTYPE svg PUBLIC "-//W3C//DTD SVG 20010904//EN"
 "http://www.w3.org/TR/2001/REC-SVG-20010904/DTD/svg10.dtd">
<svg version="1.0" xmlns="http://www.w3.org/2000/svg"
 width="70.000000pt" height="70.000000pt" viewBox="0 0 70.000000 70.000000"
 preserveAspectRatio="xMidYMid meet">
<metadata>
Created by potrace 1.14, written by Peter Selinger 2001-2017
</metadata>
<g transform="translate(0.000000,70.000000) scale(0.100000,-0.100000)"
fill="#000000" stroke="none">
<path d="M37 546 c-27 -23 -27 -24 -27 -162 l0 -139 41 -35 c22 -19 51 -45 64
-57 22 -21 30 -22 274 -23 217 0 254 2 276 16 25 16 25 17 25 167 0 83 -3 148
-6 144 -3 -3 -16 4 -29 16 -55 54 -98 87 -106 81 -5 -3 -9 0 -9 6 0 7 -72 10
-238 10 -234 -1 -239 -2 -265 -24z"/>
</g>
</svg>
