<?xml version="1.0" standalone="no"?>
<!DOCTYPE svg PUBLIC "-//W3C//DTD SVG 20010904//EN"
 "http://www.w3.org/TR/2001/REC-SVG-20010904/DTD/svg10.dtd">
<svg version="1.0" xmlns="http://www.w3.org/2000/svg"
 width="239.000000pt" height="239.000000pt" viewBox="0 0 239.000000 239.000000"
 preserveAspectRatio="xMidYMid meet">
<metadata>
Created by potrace 1.14, written by Peter Selinger 2001-2017
</metadata>
<g transform="translate(0.000000,239.000000) scale(0.100000,-0.100000)"
fill="#000000" stroke="none">
<path d="M1173 1882 c-21 -8 -63 -33 -93 -56 -30 -23 -73 -52 -95 -66 -22 -13
-62 -45 -89 -72 -55 -55 -46 -57 -136 30 -68 66 -188 148 -238 162 -91 25
-162 1 -232 -77 -118 -133 -196 -242 -240 -334 -29 -62 -52 -176 -45 -222 2
-12 6 -46 10 -76 3 -29 19 -90 36 -135 30 -81 34 -99 44 -191 7 -64 15 -133
20 -164 2 -13 7 -44 11 -68 5 -36 12 -47 33 -55 14 -6 33 -14 42 -18 25 -13
263 -24 709 -35 102 -2 316 -7 475 -11 459 -10 786 -11 842 -1 57 9 57 8 68
117 3 30 8 66 10 80 2 14 7 46 10 73 8 76 16 140 20 167 2 14 7 52 11 85 3 33
9 69 11 80 3 11 6 92 9 180 5 215 -11 288 -97 416 -35 53 -77 92 -126 118 -60
31 -191 12 -262 -39 -16 -11 -40 -20 -53 -20 -28 0 -122 -43 -165 -76 -17 -13
-34 -24 -37 -24 -2 0 -40 34 -83 76 -160 155 -261 197 -370 156z"/>
</g>
</svg>
