<?xml version="1.0" standalone="no"?>
<!DOCTYPE svg PUBLIC "-//W3C//DTD SVG 20010904//EN"
 "http://www.w3.org/TR/2001/REC-SVG-20010904/DTD/svg10.dtd">
<svg version="1.0" xmlns="http://www.w3.org/2000/svg"
 width="500.000000pt" height="500.000000pt" viewBox="0 0 500.000000 500.000000"
 preserveAspectRatio="xMidYMid meet">
<metadata>
Created by potrace 1.14, written by Peter Selinger 2001-2017
</metadata>
<g transform="translate(0.000000,500.000000) scale(0.100000,-0.100000)"
fill="#000000" stroke="none">
<path d="M150 3164 c-46 -20 -87 -59 -113 -109 -20 -38 -21 -55 -24 -435 -3
-368 -2 -398 16 -435 25 -54 303 -332 356 -356 37 -17 80 -19 606 -19 631 0
625 -1 692 68 59 60 64 102 66 520 2 348 1 365 -18 405 -28 58 -301 333 -355
358 -39 17 -75 19 -616 18 -491 0 -580 -2 -610 -15z"/>
<path d="M4046 2880 c-9 -4 -12 -53 -12 -212 1 -113 4 -210 8 -214 13 -12 87
-13 95 -1 4 7 8 50 9 97 l0 85 62 3 62 3 0 48 0 48 -60 -2 c-37 -1 -60 2 -61
9 0 6 -2 40 -2 75 l-2 65 -43 0 c-23 1 -49 -1 -56 -4z"/>
<path d="M4394 2881 c-2 -2 -4 -56 -4 -119 l0 -114 34 -34 c31 -31 39 -34 94
-34 57 0 60 -1 60 -25 l0 -24 -146 -3 -146 -3 -1 -33 c0 -18 3 -36 8 -39 7 -4
532 -7 670 -4 26 1 28 3 25 39 l-3 37 -147 3 -148 3 0 24 c0 24 2 24 93 27
l92 3 0 35 0 35 -187 3 c-158 2 -188 5 -188 17 0 18 -9 17 195 19 l160 1 3 38
3 37 -180 0 c-154 0 -181 2 -181 15 0 18 -12 17 185 20 88 1 166 3 173 4 13 1
18 70 5 72 -22 4 -465 4 -469 0z"/>
<path d="M3330 2831 c-2 -359 0 -643 5 -651 8 -14 92 -13 101 1 5 8 8 473 5
659 l-1 35 -55 1 -55 0 0 -45z"/>
<path d="M3562 2865 c-4 -5 -7 -26 -7 -45 l0 -35 125 -1 c134 -1 129 1 121
-52 0 -4 -52 -7 -113 -7 -62 1 -118 0 -123 -2 -7 -2 -10 -35 -9 -82 1 -60 6
-85 20 -104 34 -47 67 -56 219 -56 77 0 148 3 158 5 12 4 17 16 17 39 0 19 -4
36 -9 39 -5 3 -72 6 -149 7 -121 1 -141 4 -144 18 -11 44 -3 47 118 45 97 -1
116 1 122 15 11 23 8 199 -4 211 -14 14 -334 18 -342 5z"/>
<path d="M2170 2691 c0 -123 2 -138 22 -167 30 -44 59 -58 121 -59 l52 0 3
-62 3 -62 -148 -3 -148 -3 -3 -39 c-1 -22 2 -42 7 -46 15 -9 674 -6 689 3 13
9 14 75 0 83 -4 3 -70 5 -146 5 l-139 1 -1 62 0 62 90 -1 c95 0 99 2 103 48 4
51 0 52 -198 51 -211 0 -193 -9 -192 96 l0 65 187 3 c205 3 204 2 192 66 l-6
32 -244 0 -244 0 0 -135z"/>
<path d="M2988 2731 c-3 -53 -11 -109 -19 -126 -20 -45 -93 -146 -128 -178
-17 -15 -31 -31 -31 -36 0 -20 43 -61 64 -61 25 0 116 90 155 152 l22 38 36
-53 c46 -68 118 -139 135 -132 7 3 23 20 35 38 l23 32 -24 21 c-47 44 -96 112
-122 169 -22 47 -27 74 -28 144 l-2 86 -56 1 -55 1 -5 -96z"/>
<path d="M4557 2410 c-48 -12 -112 -57 -126 -88 -18 -38 -13 -96 12 -132 48
-72 169 -102 282 -70 84 24 139 103 121 174 -9 36 -54 85 -93 101 -45 19 -148
27 -196 15z m142 -95 c47 -24 48 -80 1 -105 -52 -28 -153 -9 -165 31 -22 67
85 115 164 74z"/>
<path d="M3648 2393 c-2 -10 -2 -32 0 -49 l4 -30 186 0 187 0 0 -91 c0 -51 3
-94 6 -97 10 -10 74 -13 92 -4 15 8 17 25 17 133 0 99 -3 127 -16 139 -13 14
-50 16 -244 16 -210 0 -229 -1 -232 -17z"/>
</g>
</svg>
